
		<svg xmlns="http://www.w3.org/2000/svg" xmlns:xlink="http://www.w3.org/1999/xlink" version="1.1" width="3144.230769230769" height="1103.3653846153845">
			
			<g transform="scale(7.211538461538462) translate(10, 10)">
				<defs id="SvgjsDefs1213"><linearGradient id="SvgjsLinearGradient1218"><stop id="SvgjsStop1219" stop-color="#2d388a" offset="0"></stop><stop id="SvgjsStop1220" stop-color="#00aeef" offset="1"></stop></linearGradient><linearGradient id="SvgjsLinearGradient1221"><stop id="SvgjsStop1222" stop-color="#2d388a" offset="0"></stop><stop id="SvgjsStop1223" stop-color="#00aeef" offset="1"></stop></linearGradient></defs><g id="SvgjsG1214" featureKey="root" fill="#ffffff" transform="matrix(1,0,0,1,0,0)"></g><g id="SvgjsG1215" featureKey="symbol1" fill="#1e3679" transform="matrix(0.8235834715533759,0,0,0.8235834715533759,12.29065703515354,13.561847083486414)"><g><g><g><g><path d="M113,87.4c0,0-28.6-9.7-29.4-9.8c-0.1,0.4-0.2,0.7-0.3,1.1c-1.4,5.2-2.7,10.4-4.3,15.5c-1.9,6.1-4,12-6.1,18      c0,0.1,0,0.1-0.1,0.2c-0.2,0.7-0.6,1.3-0.9,2c-0.4-2.8-0.8-6.4-1.3-9.9c-0.5-3.9-1-7.7-1.3-10.3c0-0.3-0.3-0.5-0.6-0.5H64h-4.7      c-0.3,0-0.5,0.2-0.6,0.5c-0.3,2.5-0.8,6.4-1.3,10.3c-0.5,3.5-0.9,7.2-1.3,9.9c-0.3-0.7-0.7-1.3-0.9-2c0-0.1-0.1-0.1-0.1-0.2      c-2.1-6-4.2-12-6.1-18c-1.6-5.1-2.9-10.3-4.3-15.5c-0.1-0.4-0.2-0.7-0.3-1.1C43.6,77.7,15,87.4,15,87.4      C2.5,91.6,3.3,99.9,3.3,99.9v16.5c1.1,10,8.9,9.9,8.9,9.9H64h51.8c0,0,7.8,0.2,8.9-9.9V99.9C124.7,99.9,125.5,91.6,113,87.4z"></path></g><path d="M72,84.3l-1.2-2.4c-0.3-0.5-0.8-0.8-1.4-0.8H58.7c-0.6,0-1.1,0.3-1.4,0.8L56,84.3c-0.2,0.4-0.2,0.9,0,1.4l2.4,5.1     c0,0.1,0.1,0.2,0.3,0.2H64h5.3c0.1,0,0.2-0.1,0.3-0.2l2.4-5.1C72.2,85.2,72.2,84.7,72,84.3z"></path></g></g><path d="M122.9,63.5c1.7-4.3-0.5-9.1-4.8-10.8l-20.1-7.1l0.2-0.9c1.6-6.7,1.1-13.8-1.3-20.3C90.1,6.3,69.8-2.8,51.8,4   S24.6,31.1,31.5,49.2c6.8,18,27.1,27.1,45.1,20.3c6.1-2.3,11.4-6.3,15.4-11.5l0.5-0.7l18.8,10.6c0.2,0.1,0.4,0.2,0.6,0.3l0.2,0.1   C116.4,69.9,121.3,67.7,122.9,63.5z M91.4,41.6c-0.9,4.9-3.1,9.5-6.3,13.2c-3,3.4-6.8,6.1-11.1,7.8c-14.3,5.4-30.3-1.8-35.7-16   c-5.4-14.3,1.8-30.3,16.1-35.7c14.3-5.4,30.3,1.8,35.7,16.1C91.9,31.6,92.3,36.7,91.4,41.6z"></path></g></g><g id="SvgjsG1216" featureKey="text1" fill="url(#SvgjsLinearGradient1218)" transform="matrix(3.8022812033701325,0,0,3.8022812033701325,124.14448981145895,-5.24334286403252)"><path d="M5.8 8.48 q0.84 0 1.48 0.15 t0.96 0.27 l-0.46 2 q-0.34 -0.16 -0.79 -0.26 t-0.97 -0.1 q-0.58 0 -0.98 0.17 t-0.64 0.47 t-0.34 0.73 t-0.1 0.93 l0 0.7 l3.8 0 l0 2.02 l-3.8 0 l0 8.44 l-2.42 0 l0 -11.2 q0 -2.02 1.06 -3.17 t3.2 -1.15 z M14.1425 24 l-2.42 0 l0 -10.46 l2.42 0 l0 10.46 z M14.4025 10.48 q0 0.68 -0.44 1.08 t-1.04 0.4 q-0.62 0 -1.06 -0.4 t-0.44 -1.08 q0 -0.7 0.44 -1.1 t1.06 -0.4 q0.6 0 1.04 0.4 t0.44 1.1 z M19.384999999999998 13.88 q0.7 -0.2 1.82 -0.38 t2.48 -0.18 q1.28 0 2.14 0.35 t1.37 0.98 t0.72 1.52 t0.21 1.95 l0 5.88 l-2.42 0 l0 -5.5 q0 -0.84 -0.11 -1.43 t-0.36 -0.96 t-0.68 -0.54 t-1.05 -0.17 q-0.46 0 -0.96 0.06 t-0.74 0.1 l0 8.44 l-2.42 0 l0 -10.12 z M35.1475 18.740000000000002 q0 1.6 0.76 2.51 t2.1 0.91 q0.58 0 0.99 -0.05 t0.67 -0.11 l0 -6 q-0.32 -0.22 -0.85 -0.41 t-1.13 -0.19 q-1.32 0 -1.93 0.9 t-0.61 2.44 z M42.0875 23.68 q-0.72 0.22 -1.81 0.4 t-2.29 0.18 q-1.24 0 -2.22 -0.38 t-1.67 -1.09 t-1.06 -1.72 t-0.37 -2.27 q0 -1.24 0.31 -2.25 t0.91 -1.73 t1.46 -1.11 t1.98 -0.39 q0.76 0 1.34 0.18 t1 0.4 l0 -5.02 l2.42 -0.4 l0 15.2 z M50.47 10.14 q0.44 0.76 0.98 1.86 t1.1 2.31 t1.11 2.46 t1.01 2.31 q0.46 -1.06 1 -2.31 t1.1 -2.46 t1.1 -2.31 t0.98 -1.86 l2.28 0 q0.18 1.52 0.34 3.23 t0.29 3.5 t0.24 3.6 t0.19 3.53 l-2.48 0 q-0.08 -2.42 -0.19 -4.98 t-0.33 -4.96 q-0.22 0.46 -0.52 1.1 t-0.64 1.39 t-0.69 1.55 t-0.68 1.55 t-0.61 1.4 t-0.48 1.11 l-1.88 0 q-0.2 -0.46 -0.48 -1.12 t-0.61 -1.41 t-0.68 -1.55 t-0.69 -1.54 t-0.64 -1.39 t-0.52 -1.09 q-0.22 2.4 -0.33 4.96 t-0.19 4.98 l-2.48 0 q0.08 -1.72 0.19 -3.56 t0.24 -3.65 t0.29 -3.51 t0.34 -3.14 l2.34 0 z M67.29249999999999 24 l0 -13.86 l8.9 0 l0 2.14 l-6.38 0 l0 3.42 l5.68 0 l0 2.1 l-5.68 0 l0 4.06 l6.86 0 l0 2.14 l-9.38 0 z"></path></g><g id="SvgjsG1217" featureKey="text3" fill="url(#SvgjsLinearGradient1221)" transform="matrix(0.5524860597611178,0,0,0.5524860597611178,134.082873751991,96.57458706175119)"><path d="M4.18 21.92 q0.22 0.02 0.58 0.03 t0.98 0.01 q2.54 0 3.79 -1.29 t1.25 -3.61 q0 -2.36 -1.22 -3.62 t-3.78 -1.26 q-1.12 0 -1.6 0.06 l0 9.68 z M13.42 17.06 q0 1.8 -0.56 3.13 t-1.59 2.22 t-2.48 1.32 t-3.21 0.43 q-0.84 0 -1.9 -0.07 t-2.02 -0.29 l0 -13.46 q0.96 -0.22 2.04 -0.28 t1.92 -0.06 q1.74 0 3.18 0.41 t2.47 1.28 t1.59 2.2 t0.56 3.17 z M18.3425 24 l0 -13.86 l8.9 0 l0 2.14 l-6.38 0 l0 3.42 l5.68 0 l0 2.1 l-5.68 0 l0 4.06 l6.86 0 l0 2.14 l-9.38 0 z M38.385000000000005 24.3 q-1.56 0 -2.8 -0.48 t-2.1 -1.41 t-1.32 -2.27 t-0.46 -3.08 t0.53 -3.08 t1.45 -2.27 t2.16 -1.41 t2.66 -0.48 q0.86 0 1.56 0.13 t1.22 0.29 t0.86 0.34 t0.48 0.26 l-0.74 2.06 q-0.48 -0.3 -1.37 -0.57 t-1.93 -0.27 q-0.9 0 -1.68 0.31 t-1.35 0.93 t-0.89 1.56 t-0.32 2.18 q0 1.1 0.25 2.02 t0.77 1.59 t1.32 1.04 t1.92 0.37 q1.34 0 2.18 -0.27 t1.3 -0.51 l0.68 2.06 q-0.24 0.16 -0.65 0.32 t-0.97 0.31 t-1.26 0.24 t-1.5 0.09 z M47.147499999999994 24 l0 -13.86 l8.9 0 l0 2.14 l-6.38 0 l0 3.42 l5.68 0 l0 2.1 l-5.68 0 l0 4.06 l6.86 0 l0 2.14 l-9.38 0 z M70.37 24 q-0.68 -1.14 -1.52 -2.45 t-1.74 -2.64 t-1.83 -2.58 t-1.77 -2.25 l0 9.92 l-2.48 0 l0 -13.86 l2.06 0 q0.8 0.84 1.72 1.99 t1.85 2.39 t1.8 2.49 t1.55 2.33 l0 -9.2 l2.5 0 l0 13.86 l-2.14 0 z M87.6525 10.14 l0 2.18 l-4.26 0 l0 11.68 l-2.54 0 l0 -11.68 l-4.26 0 l0 -2.18 l11.06 0 z M95.55499999999999 10 q3 0 4.59 1.1 t1.59 3.36 q0 2.82 -2.78 3.82 q0.38 0.46 0.86 1.12 t0.98 1.43 t0.96 1.58 t0.82 1.59 l-2.82 0 q-0.38 -0.72 -0.82 -1.45 t-0.89 -1.42 t-0.89 -1.3 t-0.82 -1.09 q-0.28 0.02 -0.48 0.02 l-0.38 0 l-1.22 0 l0 5.24 l-2.52 0 l0 -13.66 q0.92 -0.2 1.96 -0.27 t1.86 -0.07 z M95.73499999999999 12.18 q-0.8 0 -1.48 0.06 l0 4.48 l1.1 0 q0.92 0 1.62 -0.1 t1.17 -0.36 t0.71 -0.7 t0.24 -1.12 q0 -0.64 -0.24 -1.08 t-0.69 -0.7 t-1.07 -0.37 t-1.36 -0.11 z M115.8975 24 q-0.28 -0.82 -0.58 -1.62 t-0.58 -1.64 l-5.84 0 q-0.28 0.84 -0.57 1.65 t-0.57 1.61 l-2.62 0 q0.78 -2.22 1.48 -4.1 t1.37 -3.56 t1.33 -3.2 t1.36 -3 l2.38 0 q0.7 1.48 1.36 3 t1.33 3.2 t1.38 3.56 t1.49 4.1 l-2.72 0 z M111.8175 12.82 q-0.46 1.06 -1.05 2.58 t-1.23 3.3 l4.56 0 q-0.64 -1.78 -1.24 -3.32 t-1.04 -2.56 z M131.29999999999998 21.82 l0 2.18 l-8.76 0 l0 -13.86 l2.52 0 l0 11.68 l6.24 0 z M135.3825 10.14 l2.52 0 l0 13.86 l-2.52 0 l0 -13.86 z M146.745 22.12 q1.36 0 1.98 -0.46 t0.62 -1.3 q0 -0.5 -0.21 -0.86 t-0.6 -0.65 t-0.95 -0.54 t-1.28 -0.49 q-0.72 -0.26 -1.39 -0.57 t-1.18 -0.77 t-0.82 -1.1 t-0.31 -1.54 q0 -1.88 1.3 -2.95 t3.54 -1.07 q1.3 0 2.31 0.29 t1.59 0.63 l-0.78 2.04 q-0.68 -0.38 -1.49 -0.58 t-1.67 -0.2 q-1.02 0 -1.59 0.42 t-0.57 1.18 q0 0.46 0.19 0.79 t0.54 0.59 t0.82 0.48 t1.03 0.42 q0.98 0.36 1.75 0.73 t1.3 0.88 t0.81 1.2 t0.28 1.67 q0 1.88 -1.33 2.91 t-3.89 1.03 q-0.86 0 -1.57 -0.11 t-1.26 -0.27 t-0.95 -0.33 t-0.64 -0.31 l0.74 -2.06 q0.54 0.3 1.46 0.6 t2.22 0.3 z M156.3475 24 l0 -13.86 l8.9 0 l0 2.14 l-6.38 0 l0 3.42 l5.68 0 l0 2.1 l-5.68 0 l0 4.06 l6.86 0 l0 2.14 l-9.38 0 z M172.75 21.92 q0.22 0.02 0.58 0.03 t0.98 0.01 q2.54 0 3.79 -1.29 t1.25 -3.61 q0 -2.36 -1.22 -3.62 t-3.78 -1.26 q-1.12 0 -1.6 0.06 l0 9.68 z M181.98999999999998 17.06 q0 1.8 -0.56 3.13 t-1.59 2.22 t-2.48 1.32 t-3.21 0.43 q-0.84 0 -1.9 -0.07 t-2.02 -0.29 l0 -13.46 q0.96 -0.22 2.04 -0.28 t1.92 -0.06 q1.74 0 3.18 0.41 t2.47 1.28 t1.59 2.2 t0.56 3.17 z  M197.55499999999998 10 q3 0 4.59 1.1 t1.59 3.36 q0 2.82 -2.78 3.82 q0.38 0.46 0.86 1.12 t0.98 1.43 t0.96 1.58 t0.82 1.59 l-2.82 0 q-0.38 -0.72 -0.82 -1.45 t-0.89 -1.42 t-0.89 -1.3 t-0.82 -1.09 q-0.28 0.02 -0.48 0.02 l-0.38 0 l-1.22 0 l0 5.24 l-2.52 0 l0 -13.66 q0.92 -0.2 1.96 -0.27 t1.86 -0.07 z M197.73499999999999 12.18 q-0.8 0 -1.48 0.06 l0 4.48 l1.1 0 q0.92 0 1.62 -0.1 t1.17 -0.36 t0.71 -0.7 t0.24 -1.12 q0 -0.64 -0.24 -1.08 t-0.69 -0.7 t-1.07 -0.37 t-1.36 -0.11 z M208.6975 24 l0 -13.86 l8.9 0 l0 2.14 l-6.38 0 l0 3.42 l5.68 0 l0 2.1 l-5.68 0 l0 4.06 l6.86 0 l0 2.14 l-9.38 0 z M228.73999999999998 24.3 q-1.56 0 -2.8 -0.48 t-2.1 -1.41 t-1.32 -2.27 t-0.46 -3.08 t0.53 -3.08 t1.45 -2.27 t2.16 -1.41 t2.66 -0.48 q0.86 0 1.56 0.13 t1.22 0.29 t0.86 0.34 t0.48 0.26 l-0.74 2.06 q-0.48 -0.3 -1.37 -0.57 t-1.93 -0.27 q-0.9 0 -1.68 0.31 t-1.35 0.93 t-0.89 1.56 t-0.32 2.18 q0 1.1 0.25 2.02 t0.77 1.59 t1.32 1.04 t1.92 0.37 q1.34 0 2.18 -0.27 t1.3 -0.51 l0.68 2.06 q-0.24 0.16 -0.65 0.32 t-0.97 0.31 t-1.26 0.24 t-1.5 0.09 z M241.32249999999996 10 q3 0 4.59 1.1 t1.59 3.36 q0 2.82 -2.78 3.82 q0.38 0.46 0.86 1.12 t0.98 1.43 t0.96 1.58 t0.82 1.59 l-2.82 0 q-0.38 -0.72 -0.82 -1.45 t-0.89 -1.42 t-0.89 -1.3 t-0.82 -1.09 q-0.28 0.02 -0.48 0.02 l-0.38 0 l-1.22 0 l0 5.24 l-2.52 0 l0 -13.66 q0.92 -0.2 1.96 -0.27 t1.86 -0.07 z M241.50249999999997 12.18 q-0.8 0 -1.48 0.06 l0 4.48 l1.1 0 q0.92 0 1.62 -0.1 t1.17 -0.36 t0.71 -0.7 t0.24 -1.12 q0 -0.64 -0.24 -1.08 t-0.69 -0.7 t-1.07 -0.37 t-1.36 -0.11 z M257.80499999999995 24.3 q-1.42 0 -2.44 -0.41 t-1.69 -1.15 t-0.99 -1.74 t-0.32 -2.2 l0 -8.66 l2.54 0 l0 8.42 q0 0.94 0.21 1.61 t0.6 1.09 t0.92 0.62 t1.19 0.2 t1.2 -0.2 t0.93 -0.62 t0.6 -1.09 t0.21 -1.61 l0 -8.42 l2.54 0 l0 8.66 q0 1.2 -0.33 2.2 t-1 1.74 t-1.71 1.15 t-2.46 0.41 z M268.6875 10.14 l2.52 0 l0 13.86 l-2.52 0 l0 -13.86 z M286.34999999999997 10.14 l0 2.18 l-4.26 0 l0 11.68 l-2.54 0 l0 -11.68 l-4.26 0 l0 -2.18 l11.06 0 z M293.4525 10.14 q0.44 0.76 0.98 1.86 t1.1 2.31 t1.11 2.46 t1.01 2.31 q0.46 -1.06 1 -2.31 t1.1 -2.46 t1.1 -2.31 t0.98 -1.86 l2.28 0 q0.18 1.52 0.34 3.23 t0.29 3.5 t0.24 3.6 t0.19 3.53 l-2.48 0 q-0.08 -2.42 -0.19 -4.98 t-0.33 -4.96 q-0.22 0.46 -0.52 1.1 t-0.64 1.39 t-0.69 1.55 t-0.68 1.55 t-0.61 1.4 t-0.48 1.11 l-1.88 0 q-0.2 -0.46 -0.48 -1.12 t-0.61 -1.41 t-0.68 -1.55 t-0.69 -1.54 t-0.64 -1.39 t-0.52 -1.09 q-0.22 2.4 -0.33 4.96 t-0.19 4.98 l-2.48 0 q0.08 -1.72 0.19 -3.56 t0.24 -3.65 t0.29 -3.51 t0.34 -3.14 l2.34 0 z M310.27500000000003 24 l0 -13.86 l8.9 0 l0 2.14 l-6.38 0 l0 3.42 l5.68 0 l0 2.1 l-5.68 0 l0 4.06 l6.86 0 l0 2.14 l-9.38 0 z M333.4975 24 q-0.68 -1.14 -1.52 -2.45 t-1.74 -2.64 t-1.83 -2.58 t-1.77 -2.25 l0 9.92 l-2.48 0 l0 -13.86 l2.06 0 q0.8 0.84 1.72 1.99 t1.85 2.39 t1.8 2.49 t1.55 2.33 l0 -9.2 l2.5 0 l0 13.86 l-2.14 0 z M350.78 10.14 l0 2.18 l-4.26 0 l0 11.68 l-2.54 0 l0 -11.68 l-4.26 0 l0 -2.18 l11.06 0 z"></path></g>
			</g>
		</svg>
	